<svg viewBox="0 0 100 100" xmlns="http://www.w3.org/2000/svg">

  <symbol id="WorkoutEnergySupplement" viewBox="0 0 24 24">
    <!-- SVG -->
  </symbol>

  <symbol id="workout-energy-supplement" viewBox="0 0 24 24">
    <path
      d="M2 0H22V6H2V0ZM4 2V4H20V2H4Z"
    />
    <path
      d="M4.2 4.40002L5.8 5.60002L3 9.33336V21C3 21.2652 3.10536 21.5196 3.29289 21.7071C3.48043 21.8947 3.73478 22 4 22H20C20.2652 22 20.5196 21.8947 20.7071 21.7071C20.8946 21.5196 21 21.2652 21 21V9.33336L18.2 5.60002L19.8 4.40002L23 8.66669V21C23 21.7957 22.6839 22.5587 22.1213 23.1213C21.5587 23.684 20.7957 24 20 24H4C3.20435 24 2.44129 23.684 1.87868 23.1213C1.31607 22.5587 1 21.7957 1 21V8.66669L4.2 4.40002Z"
    />
    <path
      d="M14.4 9.79998L12 13H16L11.2 19.4L9.6 18.2L12 15H8L12.8 8.59998L14.4 9.79998Z"
    />
  </symbol>


  <symbol id="workout-bicep" viewBox="0 0 24 24">
    <path
      d="M8.96541 2.39359C8.22018 2.05846 7.39977 1.9208 6.58354 1.99582L6.53787 2.00002H6.49201C6.43311 2.00002 6.21925 2.03717 5.85629 2.4453C5.50508 2.84021 5.126 3.46235 4.74414 4.30796C3.9843 5.99061 3.30456 8.35133 2.78913 10.9664L2.78913 10.9664C2.32439 13.3239 2.47738 15.6209 2.84596 17.4279C3.02994 18.3299 3.26468 19.0951 3.49318 19.6701C3.60754 19.9578 3.71661 20.1886 3.81175 20.3603C3.85914 20.4458 3.90011 20.5113 3.93323 20.559C3.96653 20.607 3.98464 20.6264 3.98557 20.6274L3.98561 20.6275L3.98564 20.6275C4.32507 20.9733 5.04575 21.2448 6.03653 21.3718C6.97814 21.4925 7.95211 21.4568 8.56029 21.3791L8.78401 21.3505L8.99834 21.4207C10.5925 21.943 12.2757 22.1379 13.9471 21.9937L13.9898 21.99L14.0326 21.99C16.1433 21.9892 18.216 21.4304 20.0407 20.3708C21.009 19.6499 21.5628 18.4732 21.4945 17.2186C21.4271 15.9797 20.7428 14.5814 19.0599 13.4806C17.6827 12.7792 15.7615 12.8089 13.8807 13.317C11.9712 13.8329 10.4112 14.7575 9.80215 15.4791L8.71588 16.7659L8.10591 15.1962C8.08015 15.1299 7.99029 14.9718 7.78303 14.6668C7.71733 14.5701 7.63203 14.4475 7.53849 14.313C7.39665 14.1092 7.23587 13.8781 7.09581 13.6689C6.60366 12.9338 6.0113 11.9621 5.7816 10.9454L5.77459 10.9144L5.76956 10.883C5.56313 9.59239 5.47299 8.28588 5.50023 6.97918L6.50001 7.00002L6.77756 6.03931C7.00879 6.10611 7.25053 6.12752 7.48948 6.10259C8.08123 5.91352 8.61378 5.57412 9.03505 5.11766C9.04984 5.08358 9.05495 5.04579 9.0494 5.00855C9.04194 4.95854 9.01583 4.91322 8.97632 4.88169L8.12092 4.19917L8.80774 3.48155C8.81866 3.45547 8.83251 3.41942 8.84793 3.37341C8.89542 3.23166 8.94134 3.04475 8.96531 2.8524C8.98985 2.65536 8.98573 2.49746 8.96541 2.39359ZM8.94554 2.3237C8.94556 2.32366 8.94601 2.32445 8.94679 2.3262C8.9459 2.32461 8.94551 2.32374 8.94554 2.3237ZM8.78457 3.53079C8.78453 3.53058 8.78635 3.52694 8.79014 3.52052C8.78651 3.5278 8.78462 3.53101 8.78457 3.53079ZM7.50689 8.1069C7.53447 8.91944 7.61198 9.72984 7.73912 10.5335C7.88608 11.1517 8.28277 11.8468 8.75771 12.5562C8.90234 12.7722 9.02702 12.9509 9.1502 13.1274C9.18689 13.18 9.22345 13.2324 9.26036 13.2856C10.3297 12.4916 11.8164 11.803 13.3591 11.3863C15.4755 10.8145 18.0045 10.6704 20.0268 11.7291L20.0671 11.7502L20.1053 11.7748C22.2938 13.1872 23.385 15.1519 23.4915 17.1099C23.5969 19.0458 22.7293 20.8931 21.1767 22.0178L21.1375 22.0462L21.0958 22.0707C18.9664 23.3193 16.5443 23.9814 14.0763 23.9899C12.2245 24.1441 10.3609 23.9399 8.58751 23.3889C7.84126 23.4655 6.80586 23.4867 5.78224 23.3555C4.69979 23.2168 3.39399 22.8798 2.55841 22.0286C2.20784 21.6715 1.89408 21.0617 1.63456 20.4087C1.35815 19.7131 1.09145 18.8334 0.886309 17.8276C0.476636 15.8191 0.300629 13.2492 0.826885 10.5796C1.35746 7.88771 2.07372 5.36193 2.92138 3.48484C3.34327 2.55057 3.82081 1.72452 4.36179 1.11621C4.8809 0.532498 5.57768 0.0199712 6.44133 0.000590738C7.69499 -0.106964 8.95406 0.138134 10.0762 0.708604L10.1711 0.756868L10.2538 0.824044C10.6711 1.16325 10.8518 1.62378 10.927 2.00372C11.0026 2.38555 10.9907 2.77285 10.95 3.09965C10.9116 3.40729 10.8427 3.7016 10.7636 3.94982C10.8968 4.18394 10.9871 4.44258 11.0275 4.71372C11.1095 5.26372 10.9802 5.82436 10.6655 6.28285L10.6313 6.33269L10.5914 6.37805C9.89614 7.16723 8.99238 7.74427 7.98392 8.04287L7.91361 8.06369L7.84101 8.07403C7.72996 8.08985 7.61849 8.1008 7.50689 8.1069Z"
    />
    <path
      d="M19.8696 17.3522L19.0087 17.861C16.6718 19.2418 13.8828 19.6403 11.2527 18.969L10.2838 18.7217L10.7784 16.7838L11.7473 17.0311C13.8647 17.5715 16.1099 17.2508 17.9913 16.1391L18.8522 15.6304L19.8696 17.3522Z"
    />
  </symbol>

  <symbol id="workout-barbell" viewBox="0 0 24 24">
    <path
      d="M23.4142 2.00003L18.5 6.91424L17.0858 5.50003L22 0.585815L23.4142 2.00003Z"
    />
    <path
      d="M17.4142 8.00003L8.00003 17.4142L6.58582 16L16 6.58582L17.4142 8.00003Z"
    />
    <path
      d="M6.91424 18.5L2.00003 23.4142L0.585815 22L5.50003 17.0858L6.91424 18.5Z"
    />
    <path
      d="M15 0.585815L23.4142 9.00003L22 10.4142L13.5858 2.00003L15 0.585815Z"
    />
    <path
      d="M2.00003 13.5858L10.4142 22L9.00003 23.4142L0.585815 15L2.00003 13.5858Z"
    />
  </symbol>


  <symbol id="woman" viewBox="0 0 24 24">
    <path d="M13 16V24H11V16H13Z" />
    <path d="M8 20H16V22H8V20Z" />
    <path
      d="M12 2C8.13401 2 5 5.13401 5 9C5 12.866 8.13401 16 12 16C15.866 16 19 12.866 19 9C19 5.13401 15.866 2 12 2ZM3 9C3 4.02944 7.02944 0 12 0C16.9706 0 21 4.02944 21 9C21 13.9706 16.9706 18 12 18C7.02944 18 3 13.9706 3 9Z"
    />
  </symbol>

  <symbol id="puzzle" viewBox="0 0 24 24">
    <path
      d="M6 4C6 1.79072 7.79072 0 10 0C12.2093 0 14 1.79072 14 4H20V10C22.2093 10 24 11.7907 24 14C24 16.2093 22.2093 18 20 18V24H12V23C12 21.8953 11.1047 21 10 21C8.89528 21 8 21.8953 8 23V24H0V16H1C2.10472 16 3 15.1047 3 14C3 12.8953 2.10472 12 1 12H0V4H6ZM10 2C8.89528 2 8 2.89528 8 4C8 4.21491 8.04352 4.43314 8.12588 4.66404L8.6024 6H2V10.126C3.72531 10.57 5 12.136 5 14C5 15.864 3.72531 17.43 2 17.874V22H6.126C6.56999 20.2747 8.13602 19 10 19C11.864 19 13.43 20.2747 13.874 22H18V15.3976L19.336 15.8741C19.5669 15.9565 19.7851 16 20 16C21.1047 16 22 15.1047 22 14C22 12.8953 21.1047 12 20 12C19.7851 12 19.5669 12.0435 19.336 12.1259L18 12.6024V6H11.3976L11.8741 4.66404C11.9565 4.43314 12 4.21491 12 4C12 2.89528 11.1047 2 10 2Z"
    />
  </symbol>

  <symbol id="pill-off" viewBox="0 0 24 24">
    <path
      d="M21.9498 13.4646L13.4648 21.9496L12.0505 20.5354L20.5355 12.0504L21.9498 13.4646Z"
    />
    <path
      d="M5.96451 4.55029L12.4037 10.9895L10.9895 12.4037L4.55029 5.96451L5.96451 4.55029Z"
    />
    <path
      d="M12.4499 0.027233C13.8443 -0.100868 15.2396 0.262998 16.3939 1.05576C17.5482 1.84851 18.3887 3.02018 18.7697 4.36765C19.1508 5.71512 19.0483 7.15344 18.48 8.43328L18.0743 9.34725L16.2463 8.53568L16.6521 7.62171C17.0308 6.76866 17.0992 5.80998 16.8452 4.91186C16.5912 4.01373 16.031 3.23278 15.2616 2.70439C14.4923 2.17599 13.5623 1.93346 12.6328 2.01885C11.7035 2.10422 10.8334 2.51203 10.1732 3.1716C10.1731 3.17169 10.1733 3.17151 10.1732 3.1716L3.17319 10.1716C2.51241 10.8318 2.1034 11.7029 2.01772 12.6331C1.93203 13.5632 2.17479 14.494 2.70383 15.2638C3.23287 16.0336 4.0148 16.5939 4.91386 16.8473C5.81291 17.1007 6.77233 17.0313 7.62553 16.6511L8.53894 16.244L9.35303 18.0709L8.43962 18.4779C7.15955 19.0483 5.72013 19.1525 4.37126 18.7723C3.0224 18.3921 1.84926 17.5515 1.05553 16.3966C0.261801 15.2416 -0.102403 13.8451 0.0261498 12.4496C0.15469 11.0542 0.767773 9.7479 1.75897 8.75739C1.75907 8.75729 1.75887 8.75749 1.75897 8.75739L8.75897 1.75739C9.74951 0.767593 11.0554 0.155335 12.4499 0.027233Z"
    />
    <path
      d="M17 12C14.2386 12 12 14.2386 12 17C12 19.7614 14.2386 22 17 22C19.7614 22 22 19.7614 22 17C22 14.2386 19.7614 12 17 12ZM10 17C10 13.134 13.134 10 17 10C20.866 10 24 13.134 24 17C24 20.866 20.866 24 17 24C13.134 24 10 20.866 10 17Z"
    />
  </symbol>

  <symbol id="pill" viewBox="0 0 24 24">
    <path
      d="M15.4929 16.9071L7.0929 8.50711L8.50711 7.0929L16.9071 15.4929L15.4929 16.9071Z"
    />
    <path
      d="M19.1003 4.91458C17.0783 2.98461 13.906 3.00812 12.0071 4.90708L4.91492 11.9992C2.98714 14.0186 3.00795 17.1855 4.89961 19.0854C6.92162 21.0153 10.0939 20.9918 11.9929 19.0929L19.085 12.0007C21.0128 9.98137 20.992 6.8145 19.1003 4.91458ZM10.5929 3.49287C13.2915 0.79425 17.7135 0.815401 20.4919 3.47799L20.4996 3.48535L20.5071 3.49287C23.2057 6.19149 23.1845 10.6135 20.522 13.3919L20.5146 13.3996L13.4071 20.5071C10.7085 23.2057 6.28642 23.1845 3.50807 20.522L3.50039 20.5146L3.49287 20.5071C0.79425 17.8085 0.815401 13.3864 3.47799 10.6081L3.48535 10.6004L10.5929 3.49287Z"
    />
  </symbol>

  <symbol id="medical-stethoscope" viewBox="0 0 24 24">
    <path
      d="M9 15V17C9 19.7477 11.2523 22 14 22C16.7477 22 19 19.7477 19 17V16H21V17C21 20.8523 17.8523 24 14 24C10.1477 24 7 20.8523 7 17V15H9Z"
    />
    <path
      d="M20 12C18.8954 12 18 12.8954 18 14C18 15.1046 18.8954 16 20 16C21.1046 16 22 15.1046 22 14C22 12.8954 21.1046 12 20 12ZM16 14C16 11.7909 17.7909 10 20 10C22.2091 10 24 11.7909 24 14C24 16.2091 22.2091 18 20 18C17.7909 18 16 16.2091 16 14Z"
    />
    <path
      d="M2.14632 3.0533L3.73863 14.1497C3.81531 14.6163 4.24926 15 4.74996 15H11.25C11.7736 15 12.1858 14.6443 12.2606 14.1543L13.86 3.00885C13.8585 3.00739 13.8568 3.00598 13.8551 3.00467C13.8523 3.00256 13.8498 3.00118 13.8481 3.00038C13.8478 3.00023 13.8484 3.00048 13.8481 3.00038L9.99996 3V1H13.85C15.0219 1 16.0376 2.05683 15.8385 3.30137L14.2389 14.4483C14.0126 15.957 12.7254 17 11.25 17H4.74996C3.25268 17 1.98812 15.8869 1.76219 14.456L1.76 14.4421L0.155877 3.26264L0.15341 3.23305C0.0610839 2.12513 0.89212 1 2.14996 1H5.99996V3H2.16616C2.16089 3.00647 2.15507 3.01621 2.15105 3.0285C2.14841 3.03656 2.14681 3.04485 2.14632 3.0533Z"
    />
    <path d="M6 0V4H4V0H6Z" />
    <path d="M12 0V4H10V0H12Z" />
  </symbol>

  <symbol id="medical-microscope" viewBox="0 0 24 24">
    <path
      d="M13.4021 7.93793L15.4022 11.402L13.6701 12.402L11.6701 8.93795L13.4021 7.93793Z"
    />
    <path
      d="M11.0269 0.409566C11.2831 0.478211 11.5015 0.645816 11.6341 0.875507L15.6341 7.80401C15.9102 8.28229 15.7463 8.89387 15.2681 9.17001L11.8041 11.17C11.5744 11.3026 11.3014 11.3386 11.0452 11.2699C10.7891 11.2013 10.5706 11.0337 10.438 10.804L6.43803 3.87547C6.1619 3.39719 6.32577 2.78561 6.80405 2.50947L10.268 0.509472C10.4977 0.376858 10.7707 0.340921 11.0269 0.409566ZM8.67006 3.74151L11.6701 8.93795L13.4021 7.93797L10.402 2.74154L8.67006 3.74151Z"
    />
    <path
      d="M20.366 12C20.6422 12.4782 20.4783 13.0898 20 13.366L13.1 17.35C12.6218 17.6262 12.0102 17.4623 11.734 16.984C11.4579 16.5057 11.6217 15.8941 12.1 15.618L19 11.634C19.4783 11.3578 20.0899 11.5217 20.366 12Z"
    />
    <path
      d="M7.5 17.5C6.70435 17.5 5.94129 17.8161 5.37868 18.3787C4.81607 18.9413 4.5 19.7044 4.5 20.5V21.5H10.5V20.5C10.5 19.7044 10.1839 18.9413 9.62132 18.3787C9.05871 17.8161 8.29565 17.5 7.5 17.5ZM12.5 21.5V20.5C12.5 19.1739 11.9732 17.9021 11.0355 16.9645C10.0979 16.0268 8.82608 15.5 7.5 15.5C6.17392 15.5 4.90215 16.0268 3.96447 16.9645C3.02678 17.9021 2.5 19.1739 2.5 20.5V22.5C2.5 23.0523 2.94772 23.5 3.5 23.5H21.5C22.0523 23.5 22.5 23.0523 22.5 22.5C22.5 21.9477 22.0523 21.5 21.5 21.5H12.5Z"
    />
    <path
      d="M5.83383 6.54292L11.7683 3.10992L12.7698 4.84113L6.84881 8.26631C6.27667 8.62275 5.78269 9.09152 5.39678 9.64433C5.00814 10.201 4.73729 10.8312 4.60081 11.4963C4.46433 12.1614 4.46511 12.8473 4.60309 13.5121C4.74107 14.1768 5.01334 14.8064 5.40323 15.3623C5.41193 15.3747 5.42035 15.3873 5.42847 15.4L6.18847 16.5955L4.50066 17.6685L3.75237 16.4914C3.21333 15.7174 2.83655 14.8422 2.64482 13.9185C2.4515 12.9872 2.45042 12.0261 2.64163 11.0943C2.83285 10.1624 3.21234 9.27948 3.75685 8.49949C4.30135 7.71951 4.99941 7.05893 5.80822 6.55825C5.81668 6.55302 5.82522 6.54791 5.83383 6.54292Z"
    />
  </symbol>

  <symbol id="medical-diet-food" viewBox="0 0 24 24">
    <path
      d="M17 0V2C17 2.79565 16.6839 3.55871 16.1213 4.12132C15.5587 4.68393 14.7956 5 14 5V3C14 2.20435 14.3161 1.44129 14.8787 0.87868C15.4413 0.31607 16.2044 0 17 0V0Z" />
    <path
      d="M14 6.49498C14.4639 6.49117 14.9675 6.41675 15.5552 6.31651C15.6357 6.30278 15.718 6.28851 15.8019 6.27397C16.3079 6.18628 16.8708 6.08873 17.435 6.03921C18.7934 5.92 20.3166 6.06237 21.7548 7.23768L21.7558 7.23852C23.1369 8.37014 23.9007 10.4737 23.9909 12.76C24.0829 15.0924 23.4893 17.7971 21.9371 20.3235L21.937 20.3236C20.4428 22.7551 18.8358 23.7189 17.2468 23.9468C16.4922 24.055 15.8036 23.9868 15.2457 23.9057C15.0405 23.8759 14.8676 23.8477 14.717 23.8231C14.4161 23.774 14.204 23.7394 14.0001 23.7352C13.7968 23.7394 13.5853 23.7739 13.2852 23.8229C13.1345 23.8475 12.9613 23.8758 12.7557 23.9057C12.1978 23.9868 11.5092 24.055 10.7544 23.9468C9.16528 23.719 7.55745 22.7553 6.06306 20.3236L6.06253 20.3227C5.68307 19.7038 5.35107 19.0571 5.06939 18.388L6.91269 17.612C7.15511 18.1878 7.44082 18.7444 7.76738 19.277C9.02784 21.3278 10.1699 21.8425 11.0382 21.967C11.5121 22.0349 11.9791 21.9976 12.4678 21.9265C12.5707 21.9116 12.685 21.8929 12.8059 21.8732C13.1812 21.8119 13.6208 21.7402 13.9862 21.7351L14 21.7349L14.0139 21.7351C14.3799 21.7402 14.82 21.812 15.1955 21.8732C15.3164 21.8929 15.4306 21.9116 15.5335 21.9265C16.0224 21.9976 16.4893 22.0349 16.963 21.967C17.8308 21.8426 18.9723 21.3279 20.2331 19.2764C21.5728 17.0959 22.0692 14.7846 21.9924 12.8388C21.9139 10.8473 21.2505 9.41054 20.4887 8.78593C19.6021 8.06161 18.6755 7.93804 17.6098 8.03156C17.1363 8.07311 16.6662 8.15435 16.1563 8.24246C16.0693 8.25751 15.981 8.27276 15.8914 8.28804C15.3016 8.38866 14.6521 8.49063 14.0068 8.49499L13.9933 8.49508V8.49499C13.3482 8.49063 12.6985 8.38831 12.1086 8.2874C12.0189 8.27206 11.9307 8.25677 11.8436 8.24167C11.3335 8.15328 10.8632 8.07177 10.3895 8.03003C9.33692 7.93727 8.42089 8.05664 7.54655 8.75737C6.66595 9.63784 6.13979 10.8121 6.06944 12.0565L4.07263 11.9436C4.17192 10.1873 4.92234 8.53116 6.17733 7.29857L6.2093 7.26716L6.24397 7.23874C7.68123 6.06021 9.20598 5.91797 10.5651 6.03775C11.1296 6.0875 11.6928 6.18539 12.199 6.27335C12.2829 6.28794 12.3653 6.30225 12.4458 6.31603C13.0337 6.41659 13.537 6.49117 14 6.49498Z"
    />
    <path d="M6 11V15H4V11H6Z" />
    <path d="M10 11V15H8V11H10Z" />
    <path d="M14 11V15H12V11H14Z" />
    <path
      d="M0 12C0 11.4477 0.447715 11 1 11H17C17.5523 11 18 11.4477 18 12V18C18 18.5523 17.5523 19 17 19H1C0.447715 19 0 18.5523 0 18V12ZM2 13V17H16V13H2Z"
    />
  </symbol>

  <symbol id="loyalty-heart" viewBox="0 0 24 24">
    <path
      d="M10.2929 1.29289C10.6834 0.902369 11.3166 0.902369 11.7071 1.29289L18.7071 8.29289C18.8946 8.48043 19 8.73478 19 9V11C19 11.5523 18.5523 12 18 12C17.4477 12 17 11.5523 17 11V9.41421L11 3.41421L5 9.41421V22H12C12.5523 22 13 22.4477 13 23C13 23.5523 12.5523 24 12 24H4C3.44772 24 3 23.5523 3 23V9C3 8.73478 3.10536 8.48043 3.29289 8.29289L10.2929 1.29289Z"
    />
    <path
      d="M11 9C10.4477 9 10 9.44772 10 10C10 10.5523 10.4477 11 11 11C11.5523 11 12 10.5523 12 10C12 9.44772 11.5523 9 11 9ZM8 10C8 8.34315 9.34315 7 11 7C12.6569 7 14 8.34315 14 10C14 11.6569 12.6569 13 11 13C9.34315 13 8 11.6569 8 10Z"
    />
    <path
      d="M17.9999 14.5637C19.2196 13.7218 20.9395 13.8092 22.0636 14.9195C23.3115 16.1527 23.3123 18.1579 22.0634 19.3907L17.9999 23.4058L13.9364 19.3907C12.6879 18.1579 12.6883 16.1528 13.936 14.9197C15.0592 13.8104 16.7795 13.7212 17.9999 14.5637ZM17.9999 14.5637C17.6831 14.7824 17.4 15.0638 17.1699 15.4063L17.9999 15.964L18.8299 15.4061C18.5996 15.0636 18.3166 14.7823 17.9999 14.5637ZM20.658 16.3422C20.1281 15.8192 19.2419 15.9087 18.83 16.5217L18.0001 17.7567L17.17 16.5219C16.7575 15.9083 15.8712 15.8197 15.3419 16.3422M20.658 16.3422C21.1139 16.793 21.1135 17.5181 20.6584 17.9673L17.9999 20.5942L15.3418 17.9677C14.8868 17.5185 14.886 16.793 15.3419 16.3422"
    />
  </symbol>

  <symbol id="hospital" viewBox="0 0 24 24">
    <path
      d="M12 2C6.47715 2 2 6.47715 2 12C2 17.5228 6.47715 22 12 22C17.5228 22 22 17.5228 22 12C22 6.47715 17.5228 2 12 2ZM0 12C0 5.37258 5.37258 0 12 0C18.6274 0 24 5.37258 24 12C24 18.6274 18.6274 24 12 24C5.37258 24 0 18.6274 0 12Z"
    />
    <path
      d="M9 5H15V9H19V15H15V19H9V15H5V9H9V5ZM11 7V11H7V13H11V17H13V13H17V11H13V7H11Z"
    />
  </symbol>

  <symbol id="hand-shake" viewBox="0 0 24 24">
    <path
      d="M11.636 5.77819C11.636 5.77822 11.636 5.77816 11.636 5.77819L7.48289 9.93128C7.93912 10.1987 8.4621 10.3431 8.99997 10.3431C9.79541 10.3431 10.5583 10.0272 11.1209 9.46488C11.1209 9.46484 11.1208 9.46492 11.1209 9.46488L14 6.58577L15.4142 7.99999L12.5351 10.8791C11.5974 11.8164 10.3258 12.3431 8.99997 12.3431C7.67415 12.3431 6.40261 11.8166 5.46497 10.8792L4.58575 9.99999L10.2219 4.36388C11.7356 2.85055 13.7885 2.00031 15.929 2.00031C18.0694 2.00031 20.1223 2.85045 21.636 4.36379C22.9071 5.63504 23.7177 7.29429 23.9392 9.07834C24.1606 10.8624 23.7803 12.6693 22.8585 14.2127L22.3458 15.0713L20.6287 14.0458L21.1414 13.1872C21.8349 12.0261 22.121 10.6668 21.9544 9.32468C21.7878 7.98255 21.1781 6.73441 20.2218 5.77806C19.0832 4.63976 17.539 4.00031 15.929 4.00031C14.3189 4.00031 12.7746 4.63987 11.636 5.77819Z"
    />
    <path
      d="M9.00869 3.9912L8.00873 3.99994C6.42016 4.01383 4.90084 4.6522 3.77908 5.7771L3.07101 5.071L3.77819 5.77799C2.63981 6.91667 2.00031 8.46086 2.00031 10.071C2.00031 11.6811 2.63978 13.2252 3.77809 14.3639C3.77813 14.3639 3.77806 14.3638 3.77809 14.3639L9.46409 20.0499C9.9284 20.5143 10.4797 20.8827 11.0864 21.134C11.6931 21.3853 12.3433 21.5147 13 21.5147C13.6567 21.5147 14.3069 21.3853 14.9136 21.134C15.5203 20.8827 16.0715 20.5143 16.5358 20.0499L18.1718 18.414C18.1718 18.4139 18.1717 18.414 18.1718 18.414C18.5466 18.0389 18.7573 17.5303 18.7573 17C18.7573 16.4697 18.5468 15.9611 18.1719 15.5861C18.1718 15.5861 18.1719 15.5861 18.1719 15.5861L13.8518 11.266L15.266 9.85177L19.5861 14.1719C20.336 14.922 20.7573 15.9393 20.7573 17C20.7573 18.0606 20.3361 19.0779 19.5862 19.828L17.9502 21.464C17.9501 21.464 17.9502 21.464 17.9502 21.464C17.3001 22.1141 16.5284 22.6299 15.679 22.9817C14.8297 23.3336 13.9193 23.5147 13 23.5147C12.0806 23.5147 11.1703 23.3336 10.3209 22.9817C9.4716 22.6299 8.69989 22.1142 8.04988 21.4641C8.04986 21.4641 8.0499 21.4641 8.04988 21.4641L2.36388 15.7781C0.850547 14.2644 0.000305176 12.2114 0.000305176 10.071C0.000305176 7.93052 0.850454 5.8777 2.36379 4.36397C3.85642 2.86763 5.87777 2.0185 7.99124 2.00002L8.9912 1.99127L9.00869 3.9912Z"
    />
    <path
      d="M15.207 15.0118L19.098 18.9018L17.684 20.3162L13.793 16.4262L15.207 15.0118Z"
    />
    <path
      d="M12.5901 17.6279L16.2201 21.2579L14.8059 22.6721L11.1759 19.0421L12.5901 17.6279Z"
    />
  </symbol>

  <symbol id="hand-heart" viewBox="0 0 24 24">
    <path
      d="M0 12C0 11.4477 0.447715 11 1 11H2.04762C2.72279 11 3.84473 11.1265 4.96405 11.4695C5.90498 11.758 6.98358 12.2415 7.75363 13.055H10.4286C11.799 13.055 13.1171 13.5887 14.0919 14.5449C15.0674 15.5016 15.619 16.8034 15.619 18.165C15.619 18.4302 15.5137 18.6846 15.3262 18.8721C15.1386 19.0596 14.8843 19.165 14.619 19.165H8.33333C7.78105 19.165 7.33333 18.7173 7.33333 18.165C7.33333 17.6127 7.78105 17.165 8.33333 17.165H13.4496C13.2951 16.7214 13.038 16.3126 12.6915 15.9727C12.0946 15.3873 11.2809 15.055 10.4286 15.055H7.28571C6.96272 15.055 6.65961 14.899 6.47191 14.6361C6.09108 14.1028 5.32871 13.6732 4.37793 13.3817C3.45413 13.0986 2.53007 13 2.04762 13H2V18.5691L8.31996 21.6679C9.05636 22.0292 9.90846 22.0989 10.6972 21.8611L21.7201 18.5342C21.5797 18.1249 21.311 17.7654 20.9478 17.5086C20.5828 17.2504 20.1418 17.11 19.6874 17.11C19.6874 17.11 19.6875 17.11 19.6874 17.11H17.7619C17.2096 17.11 16.7619 16.6623 16.7619 16.11C16.7619 15.5577 17.2096 15.11 17.7619 15.11H19.6874C20.5525 15.1101 21.3975 15.377 22.1026 15.8757C22.8079 16.3744 23.3386 17.0807 23.6158 17.8966C23.6158 17.8967 23.6157 17.8966 23.6158 17.8966L23.9468 18.8707C24.0341 19.1275 24.0133 19.4087 23.8893 19.6498C23.7652 19.891 23.5486 20.0715 23.2889 20.1498L11.2748 23.7759C10.0036 24.1592 8.63051 24.0479 7.43947 23.4636C7.43939 23.4636 7.43954 23.4637 7.43947 23.4636L0.559752 20.0904C0.217146 19.9224 0 19.5741 0 19.1925V12Z"
    />
    <path
      d="M12.7995 0.287073C13.4091 0.0419317 14.065 -0.048831 14.7161 0.024903C15.367 0.0986073 15.9879 0.333746 16.5329 0.705351C16.6972 0.817332 16.8531 0.940713 17 1.0743C17.1469 0.940713 17.3028 0.817332 17.4671 0.705351C18.0121 0.333746 18.633 0.0986073 19.2839 0.024903C19.935 -0.048831 20.5909 0.0419318 21.2005 0.287073C21.8095 0.531956 22.3514 0.922302 22.7904 1.42059C23.5752 2.31084 24 3.48751 24 4.69457C24 5.90174 23.5751 7.07852 22.7902 7.96881L22.7888 7.97037L17.7487 13.6629C17.5589 13.8773 17.2863 14 17 14C16.7137 14 16.4411 13.8773 16.2513 13.6629L11.2112 7.97037L11.2098 7.96881C10.4249 7.07852 10 5.90175 10 4.69457C10 3.4875 10.4248 2.31084 11.2096 1.42059M22.0393 2.08231L21.2898 2.74273C21.0478 2.46806 20.7607 2.26587 20.4543 2.14266C20.1486 2.01971 19.8262 1.97627 19.5089 2.0122C19.1913 2.04816 18.8784 2.16373 18.5937 2.35783C18.3084 2.55233 18.0573 2.82201 17.8654 3.15343C17.6866 3.46224 17.3568 3.65238 17 3.65238C16.6432 3.65238 16.3134 3.46224 16.1346 3.15343C15.9427 2.82201 15.6916 2.55233 15.4063 2.35783C15.1216 2.16373 14.8087 2.04816 14.4911 2.0122C14.1738 1.97627 13.8514 2.01971 13.5457 2.14266C13.2393 2.26587 12.9522 2.46806 12.7102 2.74273L12.71 2.74299C12.2644 3.24845 12 3.94779 12 4.69457C12 5.441 12.2641 6.14003 12.7094 6.64544C12.7096 6.64567 12.7098 6.64591 12.71 6.64614L17 11.4915L21.29 6.64614C21.2902 6.64594 21.2903 6.64575 21.2905 6.64555C21.7359 6.14013 22 5.44105 22 4.69457C22 3.94779 21.7356 3.24845 21.29 2.74299L22.0393 2.08231ZM12.7995 0.287073C12.1906 0.531914 11.6488 0.922166 11.2098 1.42032L12.7995 0.287073Z"
    />
  </symbol>

  <symbol id="face-sad" viewBox="0 0 24 24">
    <path
      d="M12 23C9.82441 23 7.69767 22.3549 5.88873 21.1462C4.07979 19.9375 2.66989 18.2195 1.83733 16.2095C1.00477 14.1995 0.786929 11.9878 1.21137 9.85401C1.6358 7.72022 2.68345 5.76021 4.22183 4.22183C5.76021 2.68345 7.72022 1.6358 9.85401 1.21137C11.9878 0.786929 14.1995 1.00477 16.2095 1.83733C18.2195 2.66989 19.9375 4.07979 21.1462 5.88873C22.3549 7.69767 23 9.82441 23 12C23 14.9174 21.8411 17.7153 19.7782 19.7782C17.7153 21.8411 14.9174 23 12 23ZM12 3.00001C10.22 3.00001 8.47992 3.52785 6.99987 4.51678C5.51983 5.50571 4.36628 6.91132 3.68509 8.55585C3.0039 10.2004 2.82567 12.01 3.17294 13.7558C3.5202 15.5016 4.37737 17.1053 5.63604 18.364C6.89472 19.6226 8.49836 20.4798 10.2442 20.8271C11.99 21.1743 13.7996 20.9961 15.4442 20.3149C17.0887 19.6337 18.4943 18.4802 19.4832 17.0001C20.4722 15.5201 21 13.78 21 12C21 10.8181 20.7672 9.64778 20.3149 8.55585C19.8626 7.46392 19.1997 6.47177 18.364 5.63604C17.5282 4.80032 16.5361 4.13738 15.4442 3.68509C14.3522 3.2328 13.1819 3.00001 12 3.00001Z" />
    <path
      d="M16 17C15.8448 17 15.6916 16.9639 15.5528 16.8944C15.4139 16.825 15.2932 16.7242 15.2 16.6C14.8056 16.1273 14.3177 15.7412 13.7671 15.4659C13.2164 15.1906 12.6148 15.032 12 15C11.3848 15.0301 10.7826 15.188 10.2317 15.4634C9.68081 15.7389 9.19324 16.1259 8.8 16.6C8.64087 16.8122 8.40398 16.9524 8.14143 16.9899C7.87887 17.0275 7.61218 16.9591 7.4 16.8C7.18783 16.6409 7.04756 16.404 7.01005 16.1414C6.97255 15.8789 7.04087 15.6122 7.2 15.4C7.77775 14.6753 8.50644 14.0852 9.33539 13.6708C10.1643 13.2563 11.0736 13.0274 12 13C12.9264 13.0274 13.8357 13.2563 14.6646 13.6708C15.4936 14.0852 16.2223 14.6753 16.8 15.4C16.8788 15.5051 16.9361 15.6246 16.9687 15.7518C17.0013 15.879 17.0085 16.0114 16.99 16.1414C16.9714 16.2714 16.9274 16.3965 16.8605 16.5095C16.7936 16.6225 16.7051 16.7212 16.6 16.8C16.4269 16.9298 16.2164 17 16 17Z" />
    <path
      d="M9 10C8.73478 10 8.48043 9.89464 8.29289 9.70711C8.10536 9.51957 8 9.26522 8 9C8 8.73478 8.10536 8.48043 8.29289 8.29289C8.48043 8.10536 8.73478 8 9 8C9.26522 8 9.51957 8.10536 9.70711 8.29289C9.89464 8.48043 10 8.73478 10 9C10 9.26522 9.89464 9.51957 9.70711 9.70711C9.51957 9.89464 9.26522 10 9 10Z" />
    <path
      d="M15 10C14.7348 10 14.4804 9.89464 14.2929 9.70711C14.1054 9.51957 14 9.26522 14 9C14 8.73478 14.1054 8.48043 14.2929 8.29289C14.4804 8.10536 14.7348 8 15 8C15.2652 8 15.5196 8.10536 15.7071 8.29289C15.8946 8.48043 16 8.73478 16 9C16 9.26522 15.8946 9.51957 15.7071 9.70711C15.5196 9.89464 15.2652 10 15 10Z" />
  </symbol>

  <symbol id="face-neutral" viewBox="0 0 24 24">
    <path
      d="M12 3C7.02944 3 3 7.02944 3 12C3 16.9706 7.02944 21 12 21C16.9706 21 21 16.9706 21 12C21 7.02944 16.9706 3 12 3ZM1 12C1 5.92487 5.92487 1 12 1C18.0751 1 23 5.92487 23 12C23 18.0751 18.0751 23 12 23C5.92487 23 1 18.0751 1 12Z"
    />
    <path
      d="M7 15C7 14.4477 7.44772 14 8 14H16C16.5523 14 17 14.4477 17 15C17 15.5523 16.5523 16 16 16H8C7.44772 16 7 15.5523 7 15Z"
    />
    <path
      d="M8 9C8 8.44772 8.44772 8 9 8H9.01C9.56228 8 10.01 8.44772 10.01 9C10.01 9.55228 9.56228 10 9.01 10H9C8.44772 10 8 9.55228 8 9Z"
    />
    <path
      d="M14 9C14 8.44772 14.4477 8 15 8H15.01C15.5623 8 16.01 8.44772 16.01 9C16.01 9.55228 15.5623 10 15.01 10H15C14.4477 10 14 9.55228 14 9Z"
    />
  </symbol>

  <symbol id="face-happy" viewBox="0 0 24 24">
    <path
      d="M12 3C7.02944 3 3 7.02944 3 12C3 16.9706 7.02944 21 12 21C16.9706 21 21 16.9706 21 12C21 7.02944 16.9706 3 12 3ZM1 12C1 5.92487 5.92487 1 12 1C18.0751 1 23 5.92487 23 12C23 18.0751 18.0751 23 12 23C5.92487 23 1 18.0751 1 12Z"
    />
    <path
      d="M8.79686 13.3958C8.46468 12.9576 7.84043 12.8697 7.4 13.2C6.95817 13.5314 6.86863 14.1582 7.2 14.6L8 14C7.2 14.6 7.20024 14.6003 7.20048 14.6006L7.20101 14.6013L7.20216 14.6029L7.2049 14.6065L7.21211 14.6159L7.23341 14.6432C7.25065 14.6649 7.274 14.6938 7.30336 14.7288C7.362 14.7987 7.445 14.8933 7.55145 15.0044C7.76352 15.2257 8.07343 15.5172 8.47433 15.8087C9.27226 16.3891 10.4745 17 12 17C13.5255 17 14.7277 16.3891 15.5257 15.8087C15.9266 15.5172 16.2365 15.2257 16.4485 15.0044C16.555 14.8933 16.638 14.7987 16.6966 14.7288C16.726 14.6938 16.7493 14.6649 16.7666 14.6432L16.7879 14.6159L16.7951 14.6065L16.7978 14.6029L16.799 14.6013L16.7995 14.6006C16.7998 14.6003 16.8 14.6 16 14L16.8 14.6C17.1314 14.1582 17.0418 13.5314 16.6 13.2C16.1596 12.8697 15.5353 12.9576 15.2031 13.3958L15.1985 13.4018C15.1925 13.4093 15.1812 13.4234 15.1647 13.4431C15.1315 13.4826 15.0778 13.5442 15.0046 13.6206C14.8573 13.7743 14.6359 13.9828 14.3493 14.1913C13.7723 14.6109 12.9745 15 12 15C11.0255 15 10.2277 14.6109 9.65067 14.1913C9.36406 13.9828 9.14272 13.7743 8.99542 13.6206C8.92219 13.5442 8.86846 13.4826 8.83531 13.4431C8.81876 13.4234 8.80745 13.4093 8.8015 13.4018L8.79686 13.3958Z"
    />
    <path
      d="M9 8.5C9 8.77614 8.77614 9 8.5 9C8.22386 9 8 8.77614 8 8.5C8 8.22386 8.22386 8 8.5 8C8.77614 8 9 8.22386 9 8.5Z" />
    <path
      d="M8.5 9C8.77614 9 9 8.77614 9 8.5C9 8.22386 8.77614 8 8.5 8C8.22386 8 8 8.22386 8 8.5C8 8.77614 8.22386 9 8.5 9ZM7 8.5C7 7.67157 7.67157 7 8.5 7C9.32843 7 10 7.67157 10 8.5C10 9.32843 9.32843 10 8.5 10C7.67157 10 7 9.32843 7 8.5Z"
    />
    <path
      d="M16 8.5C16 8.77614 15.7761 9 15.5 9C15.2239 9 15 8.77614 15 8.5C15 8.22386 15.2239 8 15.5 8C15.7761 8 16 8.22386 16 8.5Z" />
    <path
      d="M15.5 9C15.7761 9 16 8.77614 16 8.5C16 8.22386 15.7761 8 15.5 8C15.2239 8 15 8.22386 15 8.5C15 8.77614 15.2239 9 15.5 9ZM14 8.5C14 7.67157 14.6716 7 15.5 7C16.3284 7 17 7.67157 17 8.5C17 9.32843 16.3284 10 15.5 10C14.6716 10 14 9.32843 14 8.5Z"
    />
  </symbol>


  <symbol id="face-doctor" viewBox="0 0 24 24">
    <path
      d="M8.599 15.0839C8.9292 14.9394 9.31164 14.9837 9.6 15.2C10.2924 15.7193 11.1345 16 12 16C12.8655 16 13.7076 15.7193 14.4 15.2C14.6884 14.9837 15.0708 14.9394 15.401 15.0839L22.026 17.9839L21.625 18.9L22.0714 18.0051C22.6255 18.2816 23.0961 18.7005 23.4349 19.2189C23.7736 19.7374 23.9682 20.3366 23.9988 20.9552C23.9996 20.9716 24 20.9881 24 21.0045V23C24 23.5523 23.5523 24 23 24H1C0.447715 24 0 23.5523 0 23V21.0045C0 20.9881 0.000406086 20.9716 0.00121784 20.9552C0.0317718 20.3366 0.226406 19.7374 0.565134 19.2189C0.903862 18.7005 1.37448 18.2816 1.92865 18.0051C1.94359 17.9977 1.95871 17.9906 1.974 17.9839L8.599 15.0839ZM21.1981 19.8048L15.1017 17.1361C14.1691 17.6993 13.097 18 12 18C10.903 18 9.83094 17.6993 8.89832 17.1361L2.80187 19.8048C2.57381 19.9227 2.38002 20.0977 2.23944 20.3129C2.09881 20.5281 2.01638 20.776 2 21.0323V22H22V21.0324C21.9836 20.776 21.9012 20.5281 21.7606 20.3129C21.62 20.0977 21.4262 19.9227 21.1981 19.8048Z"
    />
    <path
      d="M10 13.1105V16H8V13.1105H10Z"
    />
    <path
      d="M16 13.1105V16H14V13.1105H16Z"
    />
    <path
      d="M7.5 5V8.5C7.5 9.69347 7.97411 10.8381 8.81802 11.682C9.66193 12.5259 10.8065 13 12 13C13.1935 13 14.3381 12.5259 15.182 11.682C16.0259 10.8381 16.5 9.69347 16.5 8.5V5H18.5V8.5C18.5 10.2239 17.8152 11.8772 16.5962 13.0962C15.3772 14.3152 13.7239 15 12 15C10.2761 15 8.62279 14.3152 7.40381 13.0962C6.18482 11.8772 5.5 10.2239 5.5 8.5V5H7.5Z"
    />
    <path
      d="M13.5 20.5C13.5 19.9477 13.9477 19.5 14.5 19.5H18C18.5523 19.5 19 19.9477 19 20.5C19 21.0523 18.5523 21.5 18 21.5H14.5C13.9477 21.5 13.5 21.0523 13.5 20.5Z"
    />
    <path
      d="M6.4267 9.51867C7.99416 8.78108 10.0798 8 12 8C13.9201 8 16.0058 8.78109 17.5752 9.51841L16.7248 11.3286C15.2142 10.6189 13.4609 10 12 10C10.5391 10 8.7858 10.6189 7.27826 11.3283L6.4267 9.51867Z"
    />
    <path
      d="M7.67984 0.533765C8.69237 0.263755 10.1541 0 12 0C13.8459 0 15.3076 0.263755 16.3202 0.533765C16.8263 0.668734 17.2202 0.805255 17.4938 0.911182C17.6306 0.964152 17.7375 1.0095 17.8134 1.04322C17.8513 1.06008 17.8815 1.07404 17.9039 1.0846L17.9315 1.09782L17.9408 1.1024L17.9444 1.10417L17.9459 1.10492C17.9459 1.10492 17.9472 1.10557 17.5 2L17.9472 1.10557C18.286 1.27496 18.5 1.62123 18.5 2V6C18.5 6.34658 18.3205 6.66844 18.0257 6.85065C17.7321 7.0321 17.3658 7.04928 17.0566 6.89635L17.0537 6.8949L17.0549 6.89547L17.0566 6.89635L17.0495 6.89294C17.0409 6.88885 17.0247 6.88133 17.0011 6.87084C16.9539 6.84988 16.8772 6.8171 16.7718 6.77632C16.5611 6.69475 16.2362 6.58127 15.8048 6.46624C14.9424 6.23624 13.6541 6 12 6C10.3459 6 9.05763 6.23624 8.19516 6.46624C7.7638 6.58127 7.43891 6.69475 7.22818 6.77632C7.12283 6.8171 7.04609 6.84988 6.99891 6.87084C6.97533 6.88133 6.95914 6.88885 6.95048 6.89294L6.94335 6.89635C6.63417 7.04928 6.26786 7.0321 5.97427 6.85065C5.67945 6.66844 5.5 6.34658 5.5 6V2C5.5 1.62123 5.714 1.27496 6.05279 1.10557L6.5 2C6.05279 1.10557 6.05279 1.10557 6.05279 1.10557L6.0541 1.10492L6.05561 1.10417L6.05917 1.1024L6.06853 1.09782L6.09615 1.0846C6.11849 1.07404 6.1487 1.06008 6.18663 1.04322C6.26251 1.0095 6.36935 0.964152 6.50619 0.911182C6.77984 0.805255 7.1737 0.668734 7.67984 0.533765ZM7.5 2.67716V4.58307C7.55827 4.56665 7.61822 4.5502 7.67984 4.53376C8.69237 4.26375 10.1541 4 12 4C13.8459 4 15.3076 4.26375 16.3202 4.53376C16.3818 4.5502 16.4417 4.56665 16.5 4.58307V2.67716C16.3132 2.61279 16.0808 2.53983 15.8048 2.46623C14.9424 2.23624 13.6541 2 12 2C10.3459 2 9.05763 2.23624 8.19516 2.46623C7.91919 2.53983 7.6868 2.61279 7.5 2.67716Z"
    />
  </symbol>


  <symbol id="face-child" viewBox="0 0 24 24">
    <path
      d="M6.19979 3.86555C7.89293 2.65835 9.92055 2.00952 12 2.00952C14.0794 2.00952 16.107 2.65835 17.8002 3.86555C19.2771 4.91857 20.4353 6.35068 21.1569 8.00408C21.8954 8.04273 22.5958 8.35314 23.1213 8.87866C23.6839 9.44127 24 10.2043 24 11C24 11.7956 23.6839 12.5587 23.1213 13.1213C22.7554 13.4872 22.3046 13.7489 21.8153 13.8871C21.3987 16.0244 20.2937 17.9755 18.6583 19.4349C16.8259 21.0701 14.4559 21.9739 12 21.9739C9.54409 21.9739 7.17406 21.0701 5.3417 19.4349C3.70812 17.9771 2.60373 16.0288 2.1861 13.8943C2.04276 13.8551 1.90215 13.8053 1.76549 13.7451C1.373 13.572 1.02219 13.3167 0.736729 12.9965C0.451266 12.6763 0.237791 12.2986 0.110701 11.8889C-0.0163884 11.4792 -0.0541369 11.047 2.468e-06 10.6215C0.0541418 10.196 0.19891 9.78698 0.424541 9.42215C0.650172 9.05732 0.951419 8.74512 1.30796 8.50661C1.66451 8.2681 2.06806 8.10882 2.49139 8.03953C2.60822 8.0204 2.72581 8.00825 2.84354 8.00305C3.56516 6.35009 4.72319 4.91835 6.19979 3.86555ZM12 4.00952C10.3368 4.00952 8.71508 4.52846 7.36087 5.49401C6.00667 6.45955 4.98747 7.82357 4.44537 9.39592L4.14055 10.2801L3.238 10.0351C3.10001 9.99759 2.95558 9.99016 2.81447 10.0133C2.67336 10.0364 2.53884 10.0894 2.42 10.169C2.30115 10.2485 2.20073 10.3525 2.12552 10.4741C2.05031 10.5957 2.00206 10.7321 1.98401 10.8739C1.96596 11.0158 1.97855 11.1598 2.02091 11.2964C2.06327 11.433 2.13443 11.5589 2.22959 11.6656C2.32474 11.7723 2.44168 11.8574 2.57251 11.9151C2.69128 11.9675 2.819 11.9962 2.94851 11.9997C2.96539 11.998 2.98555 11.9964 3.00805 11.9952L3.94519 11.9484L4.05154 12.8806C4.27423 14.8327 5.20747 16.6345 6.67336 17.9427C8.13925 19.2509 10.0353 19.9739 12 19.9739C13.9647 19.9739 15.8607 19.2509 17.3266 17.9427C18.7925 16.6345 19.7257 14.8327 19.9484 12.8806L20.0496 11.994H20.942C20.9827 11.994 21.0182 11.9963 21.0464 11.9989C21.2947 11.9874 21.5305 11.8836 21.7071 11.7071C21.8946 11.5195 22 11.2652 22 11C22 10.7348 21.8946 10.4804 21.7071 10.2929C21.5209 10.1067 21.2688 10.0015 21.0057 10C20.9239 10.0014 20.8426 10.013 20.7637 10.0346L19.86 10.2817L19.5546 9.39592C19.0125 7.82357 17.9933 6.45955 16.6391 5.49401C15.2849 4.52846 13.6632 4.00952 12 4.00952ZM2.88575 12.0077C2.88562 12.0077 2.88566 12.0077 2.88585 12.0077L2.88575 12.0077Z"
    />
    <path
      d="M8.5 12C9.32843 12 10 11.3284 10 10.5C10 9.67157 9.32843 9 8.5 9C7.67157 9 7 9.67157 7 10.5C7 11.3284 7.67157 12 8.5 12Z"
    />
    <path
      d="M15.5 12C16.3284 12 17 11.3284 17 10.5C17 9.67157 16.3284 9 15.5 9C14.6716 9 14 9.67157 14 10.5C14 11.3284 14.6716 12 15.5 12Z"
    />
    <path
      d="M11.9999 4C11.8465 3.99999 11.6952 4.03527 11.5576 4.10311C11.42 4.17095 11.2999 4.26953 11.2065 4.39122C11.1132 4.51291 11.049 4.65446 11.0191 4.8049C10.9892 4.95535 10.9943 5.11066 11.034 5.25882C11.0737 5.40699 11.1469 5.54403 11.248 5.65936C11.3492 5.77468 11.4755 5.86519 11.6172 5.92389C11.7589 5.98259 11.9123 6.00789 12.0653 5.99786C12.2184 5.98782 12.3671 5.9427 12.4999 5.866C12.9782 5.58983 13.5898 5.75368 13.866 6.23196C14.1421 6.71023 13.9783 7.32183 13.5 7.598C13.1015 7.82811 12.6554 7.96345 12.1962 7.99357C11.737 8.02368 11.2771 7.94776 10.8519 7.77167C10.4268 7.59558 10.0478 7.32405 9.74439 6.97807C9.44097 6.6321 9.22121 6.22096 9.1021 5.77647C8.983 5.33197 8.96775 4.86604 9.05753 4.4147C9.14731 3.96337 9.33971 3.53874 9.61986 3.17367C9.9 2.80859 10.2604 2.51286 10.6731 2.30934C11.0858 2.10582 11.5398 1.99998 12 2C12.5523 2.00002 13 2.44776 13 3.00004C12.9999 3.55233 12.5522 4.00002 11.9999 4Z"
    />
    <path
      d="M12 18C12.7956 18 13.5587 17.6839 14.1213 17.1213C14.6839 16.5587 15 15.7956 15 15H9C9 15.7956 9.31607 16.5587 9.87868 17.1213C10.4413 17.6839 11.2044 18 12 18Z"
    />
  </symbol>

  <symbol id="drop" viewBox="0 0 24 24">
    <path
      d="M11.9996 1.69C12.2649 1.68989 12.5195 1.79525 12.7071 1.9829L18.3669 7.64266C18.367 7.64274 18.3668 7.64259 18.3669 7.64266C19.626 8.90107 20.4839 10.5048 20.8316 12.2507C21.1794 13.9967 21.0015 15.8066 20.3205 17.4515C19.6395 19.0964 18.4859 20.5023 17.0058 21.4915C15.5256 22.4807 13.7853 23.0087 12.005 23.0087C10.2247 23.0087 8.48443 22.4807 7.00426 21.4915C5.52409 20.5023 4.37054 19.0964 3.68953 17.4515C3.00851 15.8066 2.83063 13.9967 3.17837 12.2507C3.52606 10.505 4.3836 8.90161 5.64253 7.64326C5.64273 7.64306 5.64233 7.64346 5.64253 7.64326L11.2923 1.98352C11.4798 1.79571 11.7342 1.69012 11.9996 1.69ZM12.0006 4.10484L7.05688 9.05734C6.07746 10.0361 5.41032 11.2834 5.13985 12.6414C4.86938 13.9994 5.00773 15.4071 5.53741 16.6864C6.06709 17.9658 6.9643 19.0593 8.11554 19.8287C9.26678 20.5981 10.6203 21.0087 12.005 21.0087C13.3897 21.0087 14.7432 20.5981 15.8945 19.8287C17.0457 19.0593 17.9429 17.9658 18.4726 16.6864C19.0023 15.4071 19.1406 13.9994 18.8702 12.6414C18.5997 11.2834 17.9326 10.0361 16.9531 9.05734L12.0006 4.10484Z"
    />
  </symbol>

  <symbol id="brain" viewBox="0 0 24 24">
    <path
      d="M5.54364 2.0165C6.22533 0.783215 7.52388 0 9 0C11.2523 0 13 1.74772 13 4V5H11V4C11 2.85228 10.1477 2 9 2C8.12738 2 7.41161 2.52745 7.14868 3.31623L6.92076 4H6C3.75228 4 2 5.75229 2 8C2 9.058 2.41045 10.0962 3.10711 10.7929L3.99598 11.6818L2.93 12.348C2.38849 12.6864 2 13.2829 2 14C2 14.6656 2.33106 15.2402 2.83 15.552L3.53899 15.9951L3.22848 16.7714C3.08083 17.1405 3 17.6127 3 18C3 20.2477 4.75229 22 7 22C9.24771 22 11 20.2477 11 18V9H13V18C13 21.3523 10.3523 24 7 24C3.64772 24 1 21.3523 1 18C1 17.6137 1.04737 17.1817 1.14561 16.7571C0.42133 16.0494 0 15.059 0 14C0 12.9554 0.402681 12.0494 1.01072 11.3739C0.348377 10.3824 0 9.18535 0 8C0 4.80138 2.41055 2.24421 5.54364 2.0165Z"
    />
    <path
      d="M15 2C13.8523 2 13 2.85228 13 4V5H11V4C11 1.74772 12.7477 0 15 0C16.4761 0 17.7747 0.783215 18.4564 2.0165C21.5895 2.24421 24 4.80138 24 8C24 9.18535 23.6516 10.3824 22.9893 11.3739C23.5973 12.0494 24 12.9554 24 14C24 15.0566 23.5806 16.0448 22.8595 16.7521C22.9533 17.1453 23 17.554 23 18C23 21.3523 20.3523 24 17 24C13.6477 24 11 21.3523 11 18V17H13V18C13 20.2477 14.7523 22 17 22C19.2477 22 21 20.2477 21 18C21 17.5244 20.9233 17.1507 20.7715 16.7714L20.461 15.9951L21.17 15.552C21.6689 15.2402 22 14.6656 22 14C22 13.2829 21.6115 12.6864 21.07 12.348L20.004 11.6818L20.8929 10.7929C21.5896 10.0962 22 9.058 22 8C22 5.75229 20.2477 4 18 4H17.0792L16.8513 3.31623C16.5884 2.52745 15.8726 2 15 2Z"
    />
    <path
      d="M2.39999 10.0858L3.1071 10.7929C3.83219 11.518 4.88255 12 5.99999 12H6.99999V14H5.99999C4.31744 14 2.7678 13.282 1.69289 12.2071L0.985779 11.5L2.39999 10.0858Z"
    />
    <path
      d="M23.0142 11.5L22.3071 12.2071C21.2322 13.282 19.6826 14 18 14H17V12H18C19.1174 12 20.1678 11.518 20.8929 10.7929L21.6 10.0858L23.0142 11.5Z"
    />
    <path
      d="M13 3V4C13 6.25228 11.2523 8 9 8H8V6H9C10.1477 6 11 5.14772 11 4V3H13Z"
    />
    <path
      d="M13 3V4C13 5.14772 13.8523 6 15 6H16V8H15C12.7477 8 11 6.25228 11 4V3H13Z"
    />
    <path
      d="M8.40841 10.928L7.64018 11.5682C7.26976 11.8769 7 12.3947 7 13C7 13.8726 7.52745 14.5884 8.31623 14.8513L9.26491 15.1676L8.63246 17.0649L7.68377 16.7487C6.07255 16.2116 5 14.7274 5 13C5 11.8053 5.53024 10.7231 6.35982 10.0318L7.12804 9.3916L8.40841 10.928Z"
    />
    <path
      d="M16.872 9.3916L17.6402 10.0318C18.4698 10.7231 19 11.8053 19 13C19 14.7274 17.9275 16.2116 16.3162 16.7487L15.3676 17.0649L14.7351 15.1676L15.6838 14.8513C16.4726 14.5884 17 13.8726 17 13C17 12.3947 16.7303 11.8769 16.3598 11.5682L15.5916 10.928L16.872 9.3916Z"
    />

  </symbol>

  <symbol id="activity" viewBox="0 0 24 24">
    <path
      d="M9 2C9.43043 2 9.81257 2.27543 9.94868 2.68377L15 17.8377L17.0513 11.6838C17.1874 11.2754 17.5696 11 18 11H22C22.5523 11 23 11.4477 23 12C23 12.5523 22.5523 13 22 13H18.7208L15.9487 21.3162C15.8126 21.7246 15.4304 22 15 22C14.5696 22 14.1874 21.7246 14.0513 21.3162L9 6.16228L6.94868 12.3162C6.81257 12.7246 6.43043 13 6 13H2C1.44772 13 1 12.5523 1 12C1 11.4477 1.44772 11 2 11H5.27924L8.05132 2.68377C8.18743 2.27543 8.56957 2 9 2Z"
    />
  </symbol>
</svg>